<?xml version="1.0" encoding="utf-8"?>
<!-- Generator: Adobe Illustrator 24.0.1, SVG Export Plug-In . SVG Version: 6.00 Build 0)  -->
<svg version="1.1" id="レイヤー_1" xmlns="http://www.w3.org/2000/svg" xmlns:xlink="http://www.w3.org/1999/xlink" x="0px"
	 y="0px" viewBox="0 0 562.13 306.35" style="enable-background:new 0 0 562.13 306.35;" xml:space="preserve">
<circle cx="279.95" cy="11.08" r="6.17"/>
<path d="M259.65,57.45h-9.55c0,0,0.8-19.5,20.9-23.68C271,33.77,259.65,41.73,259.65,57.45z"/>
<path d="M325.84,62.71c-2.14-24.11-21.6-43.05-45.22-43.05c-23.61,0-43.06,18.93-45.22,43.03h-1.03c-3.59,0-6.5,2.91-6.5,6.5
	s2.91,6.5,6.5,6.5h62.28c-1.8,0.19-3.57,1.27-4.66,2.97c-0.65,1.01-1.25,2.02-1.87,3.07c-1.1,1.85-2.23,3.76-3.84,6
	c-1.44,2-4.73-0.03-4.86-0.12l-0.24-0.13c-0.8-0.37-19.57-8.99-24.12-10.96c-3.41-1.48-6.13-0.28-7.3,1.58
	c-1.37,2.16-0.79,5.01,1.41,6.93c3.16,2.76,27.64,23.61,28.68,24.5l16.23,9.17l-0.6,1.05l16.52,9.15l12.94-24.08l-15.72-9.15
	l-0.89,1.55l-2.46-1.48c-1.72-1.03-2.47-3.55-2.62-4.49c-0.07-0.82-0.62-7.5-1-10.56c-0.32-2.59-1.79-4.43-3.93-4.91
	c-0.21-0.05-0.42-0.06-0.63-0.08h27.85c3.59,0,6.5-2.91,6.5-6.5C332.03,65.71,329.28,62.87,325.84,62.71z M314.18,105.42
	c1.43,0,2.59,1.16,2.59,2.59s-1.16,2.59-2.59,2.59s-2.59-1.16-2.59-2.59S312.75,105.42,314.18,105.42z M298.27,81.18
	c0.39,3.1,0.98,10.39,0.99,10.46l0.01,0.12c0.03,0.21,0.77,5.15,4.53,7.4l2.54,1.52l-8.28,14.52l-0.1-0.04l-15.67-8.81
	c-2.09-1.78-25.48-21.7-28.49-24.34c-0.79-0.69-0.9-1.41-0.66-1.78c0.26-0.42,1.08-0.59,2.33-0.05
	c4.32,1.88,22.29,10.12,23.93,10.88c2.33,1.43,7.27,2.98,10.14-0.99c1.72-2.38,2.96-4.47,4.04-6.3c0.59-1,1.17-1.97,1.79-2.94
	c0.57-0.88,1.49-1.27,2.05-1.15C298.01,79.81,298.2,80.68,298.27,81.18z M240.42,62.69c2.12-21.34,19.34-38.03,40.2-38.03
	s38.08,16.69,40.2,38.03H240.42z"/>
<path d="M192.02,301.4c-0.24-1.08-0.57-2.13-0.93-3.06l-1.56-3.87h-10.47l-1.56,3.87c-0.45,1.14-0.72,2.01-0.93,3.06h-3.12
	c0.6-0.99,0.81-1.44,1.62-3.45l6.72-16.56c0.57-1.41,0.81-2.1,0.96-2.79h3.03c0.12,0.57,0.27,0.96,1.02,2.79l6.72,16.56
	c0.75,1.8,1.14,2.67,1.59,3.45H192.02z M184.94,282.5c-0.09-0.24-0.09-0.27-0.66-1.92c-0.15,0.45-0.27,0.78-0.33,0.99
	c-0.18,0.48-0.27,0.81-0.33,0.93l-3.84,9.9h9.03L184.94,282.5z"/>
<path d="M213.24,284.51c-0.24-1.2-0.48-1.8-1.05-2.49c-0.96-1.14-2.49-1.74-4.44-1.74c-3.09,0-5.25,1.65-5.25,4.08
	c0,1.56,0.84,2.67,2.61,3.39c0.81,0.33,0.84,0.33,4.29,1.08c4.8,1.02,6.72,2.85,6.72,6.33c0,4.23-2.91,6.63-8.07,6.63
	c-3.36,0-5.85-0.99-7.23-2.85c-0.78-1.05-1.11-1.98-1.41-3.96l2.61-0.33c0.09,1.44,0.3,2.16,0.93,2.97
	c0.99,1.32,2.79,2.07,5.01,2.07c3.57,0,5.73-1.68,5.73-4.47c0-1.47-0.6-2.58-1.74-3.21c-0.99-0.57-1.32-0.66-4.95-1.47
	c-1.89-0.39-3.06-0.81-4.08-1.38c-1.86-1.05-2.79-2.64-2.79-4.74c0-3.78,3.03-6.21,7.68-6.21c2.97,0,5.28,0.96,6.63,2.76
	c0.69,0.9,0.99,1.65,1.32,3.18L213.24,284.51z"/>
<path d="M239.16,301.4c-0.24-1.08-0.57-2.13-0.93-3.06l-1.56-3.87H226.2l-1.56,3.87c-0.45,1.14-0.72,2.01-0.93,3.06h-3.12
	c0.6-0.99,0.81-1.44,1.62-3.45l6.72-16.56c0.57-1.41,0.81-2.1,0.96-2.79h3.03c0.12,0.57,0.27,0.96,1.02,2.79l6.72,16.56
	c0.75,1.8,1.14,2.67,1.59,3.45H239.16z M232.08,282.5c-0.09-0.24-0.09-0.27-0.66-1.92c-0.15,0.45-0.27,0.78-0.33,0.99
	c-0.18,0.48-0.27,0.81-0.33,0.93l-3.84,9.9h9.03L232.08,282.5z"/>
<path d="M266.71,278.6c-0.18,1.14-0.24,1.89-0.24,3.3v16.14c0,1.47,0.06,2.19,0.24,3.36h-2.82c0.18-1.11,0.24-1.92,0.24-3.36v-7.59
	h-13.56v7.59c0,1.5,0.06,2.28,0.24,3.36h-2.82c0.18-1.02,0.24-1.89,0.24-3.36v-16.08c0-1.44-0.06-2.31-0.24-3.36h2.82
	c-0.18,1.11-0.24,1.89-0.24,3.3v6.42h13.56v-6.36c0-1.41-0.06-2.34-0.24-3.36H266.71z"/>
<path d="M276.94,278.6c-0.18,0.99-0.27,2.1-0.27,3.36v16.08c0,1.32,0.09,2.34,0.27,3.36h-2.85c0.18-1.11,0.24-1.86,0.24-3.36v-16.08
	c0-1.5-0.06-2.28-0.24-3.36H276.94z"/>
<path d="M299.85,298.13c1.71,2.16,2.01,2.49,2.82,3.27h-3.48c-0.42-0.75-0.93-1.53-1.77-2.58l-7.08-9.12l-3.51,3.45v4.89
	c0,1.5,0.06,2.31,0.24,3.36h-2.79c0.18-0.96,0.24-1.98,0.24-3.36v-16.08c0-1.38-0.06-2.25-0.24-3.36h2.79
	c-0.18,0.96-0.24,1.89-0.24,3.36v8.31l9.12-9.18c1.14-1.14,1.65-1.74,2.07-2.49h3.54c-0.54,0.51-0.54,0.51-0.78,0.75
	c-0.48,0.48-0.93,0.9-1.32,1.32c-0.54,0.57-0.9,0.93-0.99,1.02l-6.48,6.45L299.85,298.13z"/>
<path d="M326.1,301.4c-0.24-1.08-0.57-2.13-0.93-3.06l-1.56-3.87h-10.47l-1.56,3.87c-0.45,1.14-0.72,2.01-0.93,3.06h-3.12
	c0.6-0.99,0.81-1.44,1.62-3.45l6.72-16.56c0.57-1.41,0.81-2.1,0.96-2.79h3.03c0.12,0.57,0.27,0.96,1.02,2.79l6.72,16.56
	c0.75,1.8,1.14,2.67,1.59,3.45H326.1z M319.02,282.5c-0.09-0.24-0.09-0.27-0.66-1.92c-0.15,0.45-0.27,0.78-0.33,0.99
	c-0.18,0.48-0.27,0.81-0.33,0.93l-3.84,9.9h9.03L319.02,282.5z"/>
<path d="M351.11,301.4c-0.12-0.6-0.39-1.68-0.78-2.88l-3.96-12.96c-0.39-1.29-0.66-2.31-0.87-3.45c-0.06,0.21-0.12,0.39-0.12,0.51
	c-0.21,0.78-0.6,2.34-0.78,2.94l-3.93,12.96c-0.51,1.62-0.63,2.13-0.78,2.88h-2.31c-0.09-0.54-0.09-0.54-0.81-2.97l-4.74-16.41
	c-0.48-1.65-0.75-2.43-1.23-3.42h3.03c0.06,0.9,0.24,1.89,0.57,3.12l3.54,13.02c0.21,0.72,0.39,1.56,0.81,3.39
	c0.3-1.2,0.66-2.61,0.9-3.42l4.02-13.17c0.33-1.08,0.6-2.25,0.69-2.94h2.25c0.15,0.9,0.36,1.8,0.72,2.94l4.02,13.14
	c0.18,0.66,0.3,1.11,0.9,3.45l0.81-3.45l3.54-12.96c0.3-1.17,0.51-2.25,0.57-3.12h3c-0.45,1.02-0.69,1.74-1.17,3.42l-4.77,16.41
	c-0.66,2.28-0.66,2.31-0.78,2.97H351.11z"/>
<path d="M380.37,301.4c-0.24-1.08-0.57-2.13-0.93-3.06l-1.56-3.87h-10.47l-1.56,3.87c-0.45,1.14-0.72,2.01-0.93,3.06h-3.12
	c0.6-0.99,0.81-1.44,1.62-3.45l6.72-16.56c0.57-1.41,0.81-2.1,0.96-2.79h3.03c0.12,0.57,0.27,0.96,1.02,2.79l6.72,16.56
	c0.75,1.8,1.14,2.67,1.59,3.45H380.37z M373.29,282.5c-0.09-0.24-0.09-0.27-0.66-1.92c-0.15,0.45-0.27,0.78-0.33,0.99
	c-0.18,0.48-0.27,0.81-0.33,0.93l-3.84,9.9h9.03L373.29,282.5z"/>
<path d="M38.5,213.43c0.16,1.44,0.48,3.04,0.48,4.32c0,3.52-2.8,3.52-3.04,3.52c-0.72,0-0.96,0-4.64-1.68
	c-1.68-0.8-4.8-2.08-7.2-2.72c-0.56-0.16-0.88-0.4-1.12-0.72c-2.88,2.24-4.64,3.6-6.48,3.6c-1.52,0-2.32-1.04-2.32-2.16
	c0-0.8,0.48-1.68,1.36-2.08c1.04-0.48,4-1.84,17.92-12.56c-0.64-6.64-0.88-12.16-0.88-17.36c0-0.64,0-1.36,0-2.08
	c-1.6,0.64-5.44,1.36-6.88,1.36c-0.64,0-6.48,0-6.48-3.2c0-1.04,0.8-2,2.16-2c0.48,0,1.04,0.08,1.6,0.32
	c0.96,0.4,2.08,0.64,3.28,0.64c1.36,0,3.2-0.24,6.48-1.44c0.16-3.68,0.56-7.36,1.12-11.12c0.24-1.68,1.36-2.4,2.48-2.4
	c1.2,0,2.32,0.88,2.32,2.24c0,0.24,0,0.56-0.08,0.8c-0.72,2.88-1.36,5.76-1.68,8.72c2.48-1.12,4.88-2.32,6.16-3.36
	c0.56-0.48,1.2-0.64,1.76-0.64c1.12,0,2.08,0.8,2.08,1.92c0,2.48-5.04,4.56-10.32,6.64c-0.08,1.52-0.16,3.04-0.16,4.56
	c0,4.16,0.32,8.72,0.72,13.68c7.6-5.6,13.52-8.8,21.12-8.8c8.16,0,11.92,4.56,11.92,9.92c0,8.4-9.28,16.8-17.52,16.8
	c-4.24,0-7.2-2.32-7.2-6.64c0-0.4,0.24-6.96,3.6-6.96c1.12,0,2.16,0.8,2.16,2c0,0.4-0.16,0.88-0.4,1.36
	c-0.64,1.2-0.96,2.32-0.96,3.2c0,1.76,1.12,2.88,3.12,2.88c5.44,0,12.64-6.48,12.64-12.48c0-3.36-2.24-6.24-8.24-6.24
	c-6.4,0-12,3.36-19.84,9.28C37.78,207.35,38.18,210.31,38.5,213.43z M25.78,214.07c1.6,0.4,4.96,1.44,6.88,2.08
	c0.48,0.16,0.88,0.24,1.2,0.24c0.56,0,0.8-0.4,0.8-1.44c0-0.48-0.08-1.12-0.16-2c-0.24-2-0.48-3.84-0.64-5.68
	c-3.2,2.4-3.2,2.4-8.32,6.72L25.78,214.07z M74.5,181.83c-1.44-1.68-4.24-3.52-7.44-3.52c-2.56,0-5.28,1.12-7.84,4.16
	c-0.48,0.56-1.12,0.8-1.76,0.8c-1.04,0-2.08-0.64-2.08-1.68c0-1.76,4.56-7.04,12.24-7.04c6.48,0,10.8,3.84,10.8,6
	c0,1.2-0.96,2.24-2.16,2.24C75.7,182.79,75.06,182.47,74.5,181.83z"/>
<path d="M96.83,196.71c-3.52,1.28-9.76,3.44-10.64,3.44c-1.36,0-2.08-1.04-2.08-2.08c0-0.8,0.48-1.68,1.6-2
	c3.6-1.04,7.44-2.08,11.12-3.36l-0.08-15.52h-9.76c-1.2,0-1.84-0.96-1.84-1.92c0-0.88,0.64-1.84,1.84-1.84h9.76v-15.28
	c0-1.44,1.04-2.16,2.08-2.16s2.08,0.72,2.08,2.16v15.28h7.92c1.28,0,1.84,0.96,1.84,1.84c0,0.96-0.56,1.92-1.84,1.92h-7.92v14
	c2.72-1.04,5.28-2.16,7.6-3.28c0.16-0.08,0.4-0.16,0.56-0.16c0.96,0,1.84,1.04,1.84,2.08c0,1.28-1.2,2-10,5.44v11.84
	c0,1.28,0,6.88,0.08,9.76v0.16c0,4.48-2.4,7.6-8.48,7.6c-3.04,0-6.4-0.24-6.4-2.56c0-1.12,0.72-2.16,1.92-2.16h0.32
	c1.52,0.24,2.96,0.48,4.16,0.48c2.48,0,4.24-0.8,4.32-3.76V196.71z M111.87,184.55c-1.28,0-1.92-0.88-1.92-1.84
	c0-0.88,0.64-1.76,1.92-1.76l17.36,0.08l-0.08-10.16h-13.2c-1.28,0-1.92-0.88-1.92-1.84c0-0.88,0.64-1.76,1.92-1.76l13.2,0.08v-8.8
	c0-1.28,1.04-1.92,2.16-1.92c1.04,0,2.16,0.64,2.16,1.92l-0.08,8.8l14.4-0.08c1.2,0,1.84,0.88,1.84,1.76c0,0.96-0.64,1.84-1.84,1.84
	h-14.4v10.16l18.72-0.08c1.2,0,1.76,0.88,1.76,1.76c0,0.96-0.56,1.84-1.76,1.84H111.87z M137.63,198.31l-25.76,0.08
	c-1.28,0-1.92-0.96-1.92-1.84c0-0.96,0.64-1.84,1.92-1.84l25.76,0.08l-0.08-5.52c0-1.28,1.04-1.84,2.08-1.84s2.08,0.56,2.08,1.84
	v5.52l10.96-0.08c1.2,0,1.76,0.88,1.76,1.84c0,0.88-0.56,1.84-1.76,1.84l-10.96-0.08l0.08,10.08l0.24,8v0.48
	c0,3.76-1.68,8.24-10.4,8.24c-7.84,0-7.92-1.6-7.92-2.72c0-1.04,0.72-2.08,2-2.08h0.4c2.32,0.4,4.4,0.72,6.16,0.72
	c3.36,0,5.44-1.2,5.44-5.04L137.63,198.31z M126.51,212.95c-2.48-3.28-7.12-5.92-9.2-6.88c-0.64-0.32-0.96-0.8-0.96-1.28
	c0-0.96,0.96-1.92,2.08-1.92c1.84,0,11.68,5.52,11.68,8.72c0,1.28-0.88,2.32-2,2.32C127.63,213.91,126.99,213.59,126.51,212.95z"/>
<path d="M171.02,180.63c-1.6,0-6.24-0.24-6.24-2.88c0-1.04,0.8-2.08,2.16-2.08c0.48,0,0.96,0.08,1.44,0.32
	c0.96,0.32,2,0.56,3.2,0.56c2.16,0,4.56-0.64,6.8-1.68c1.76-13.6,1.92-14.8,4.4-14.8c1.12,0,2.24,0.64,2.24,1.92
	c0,0.16-0.08,0.32-0.08,0.48c-0.72,3.44-1.6,6.64-2.16,10c1.68-1.12,4.32-2.96,5.44-3.84c0.72-0.56,1.36-0.8,2-0.8
	c1.12,0,1.92,0.88,1.92,2c0,0.8-0.48,1.76-1.6,2.56c-3.12,2.16-5.92,3.84-8.4,5.12c-0.96,7.92-2.88,20.8-3.12,27.36
	c6.64-9.12,15.28-13.76,22.16-13.76c0.96,0,13.52,0.56,13.52,10.4c0,14.08-22.88,22.56-28.64,22.56c-1.76,0-2.64-1.04-2.64-2.08
	c0-1.04,0.8-2,2.32-2.24c16.16-2.4,24.48-12.72,24.48-18.08c0-5.68-7.12-6.72-9.52-6.72c-7.44,0-15.6,7.04-19.76,13.52
	c-0.8,1.2-1.28,2.56-2.72,3.12c-0.32,0.16-0.64,0.24-1.04,0.24c-1.28,0-2.64-0.96-2.64-2.64c0-1.04,0.32-5.76,3.28-29.84
	C175.26,180.23,173.02,180.63,171.02,180.63z"/>
<path d="M227.34,195.59c-1.04,0-1.92-0.64-1.92-1.76c0-0.24,0-0.56,0.16-0.88c1.68-4.16,2.4-11.36,2.4-17.12
	c0-1.44-0.08-2.88-0.16-4.08v-0.16c0-1.12,0.88-1.68,1.84-1.68c2,0,2.16,1.12,2.16,5.6c0,6.24-0.72,14.64-2.4,18.64
	C229.02,195.19,228.14,195.59,227.34,195.59z M238.7,159.75c0-1.36,1.04-2.08,2.08-2.08c1.12,0,2.16,0.72,2.16,2.16v22
	c0,16.8-2.8,31.36-12.08,40.24c-0.64,0.64-1.36,0.88-2,0.88c-1.2,0-2.16-0.88-2.16-2c0-0.48,0.16-1.04,0.72-1.6
	c9.68-9.44,11.44-23.28,11.44-38.56v-1.04c0-6.32,0-14.32-0.16-19.92V159.75z M286.78,196.31c0-3.36-0.08-5.44-4.32-5.52
	c-3.76-0.08-8.8-0.16-13.84-0.16s-10,0.08-13.52,0.16c-3.12,0.08-4.24,1.2-4.4,3.52v6.48c0,1.12-0.96,1.68-2,1.68
	c-2.08,0-2.16-1.2-2.16-5.36c0-1.28,0.08-2.64,0.08-3.92c0.08-3.52,2.64-5.84,7.6-5.92c4.16-0.08,9.36-0.08,14.64-0.08
	c5.2,0,10.56,0,14.8,0.08c4.08,0.08,7.28,2.08,7.36,6.48c0.08,1.04,0.08,2.16,0.08,3.36c0,3.76-0.08,5.04-2.4,5.04
	c-0.96,0-1.92-0.56-1.92-1.6V196.31z M280.22,171.59l-24.96,0.08c-1.2,0-1.76-0.8-1.76-1.6c0-0.88,0.64-1.76,1.76-1.76l25.04,0.08
	c0-4.08,0-6.24-4.08-6.24h-22.96c-1.2,0-1.84-0.88-1.84-1.76c0-0.88,0.64-1.76,1.92-1.76h23.52c4.72,0.08,7.12,2.24,7.36,6.16
	c0.08,1.36,0.16,3.36,0.16,5.44c0,7.6,0,11.12-7.52,11.2c-5.12,0.08-11.44,0.08-17.2,0.08h-6.72c-1.12,0-1.68-0.8-1.68-1.68
	c0-0.8,0.56-1.68,1.68-1.68c3.44,0,7.76,0.08,12,0.08c4.24,0,8.4-0.08,11.28-0.08c2.72-0.08,3.92-1.12,4-3.12V171.59z
	 M266.46,202.23c-2.32,0-4.48,0.08-6.56,0.16c-3.92,0.08-3.92,1.76-3.92,6.88c0,3.04,0,6.48,0.08,9.44v0.08
	c0,1.12-0.96,1.68-1.92,1.68c-1.04,0-2-0.56-2.08-1.76c0-2.08-0.08-4.4-0.08-6.72c0-2.32,0.08-4.72,0.08-6.8
	c0.16-6.16,5.04-6.24,14.4-6.24v-4.08c0-1.28,1.04-1.84,2-1.84c1.04,0,2,0.56,2,1.84v4.08c2.64,0,5.28,0.08,8,0.16
	c4.72,0.16,6.96,2.32,7.04,6.16c0,2.32,0,5.2,0.08,7.84v0.16c0,3.76-1.84,6.56-6.88,6.56c-2.64,0-4.8-0.32-4.8-2.16
	c0-0.96,0.56-1.84,1.44-1.84h0.24c0.96,0.16,2,0.4,2.96,0.4c1.68,0,3.12-0.64,3.12-3.12c0-0.16,0-5.12-0.08-7.28
	c-0.16-3.6-2.24-3.6-11.12-3.6l0.08,21.36c0,1.36-1.04,2-2.08,2s-2.08-0.64-2.08-2L266.46,202.23z"/>
<path d="M313.01,193.91c0,2.16-1.2,3.2-2.32,3.2c-2.32,0-2.4-2.72-2.4-4.32c0-6.32,1.84-13.52,3.04-17.36
	c1.2-4.16,3.36-10.16,4.32-15.2c0.24-1.28,1.12-1.84,2-1.84c1.2,0,2.48,1.04,2.48,2.48c0,0.16,0,0.32,0,0.48
	c-0.56,3.28-2.24,6.32-2.96,8.48c-0.24,0.72-0.32,1.04-0.24,1.04c0.16,0,0.4-0.32,0.88-0.8c2.48-2.64,5.6-4.16,8.56-4.16
	c3.92,0,7.6,2.64,9.28,8.8c1.2,4.4,2,9.28,2,14.32c0,13.12-5.6,27.2-24.72,35.44c-0.56,0.24-1.12,0.4-1.6,0.4
	c-1.44,0-2.32-1.04-2.32-2.16c0-0.8,0.56-1.76,1.76-2.24c17.52-7.2,22.24-20,22.24-31.92c0-4.32-0.56-8.48-1.44-12.24
	c-1.04-4.48-3.44-6.48-6.16-6.48c-3.76,0-12.4,4.96-12.4,22.64c0,0.4,0,0.88,0,1.36V193.91z"/>
<path d="M381.86,220.63c-18.8,0-24.24-8.8-24.24-10.64c0-1.36,1.04-2.32,2.24-2.32c0.72,0,1.52,0.32,2.24,1.2
	c4.16,5.28,10.96,6.88,17.6,6.88c5.2,0,10.24-0.96,13.84-1.92c0.48-0.16,0.88-0.16,1.28-0.16c1.68,0,2.64,1.12,2.64,2.32
	c0,1.2-0.88,2.56-2.8,3.04C390.67,220.07,386.18,220.63,381.86,220.63z M388.02,178.39c-3.44,0-12.88-0.8-21.76-5.12
	c-0.96-0.48-1.44-1.36-1.44-2.16c0-1.12,0.8-2.16,2.08-2.16c0.4,0,0.88,0.16,1.44,0.4c5.92,2.72,11.68,4,20.16,4.32
	c1.68,0.08,2.64,1.28,2.64,2.4C391.14,177.27,390.18,178.39,388.02,178.39z M398.51,172.39c-1.04-1.76-5.28-5.76-7.04-6.88
	c-0.72-0.48-0.96-0.96-0.96-1.44c0-0.88,0.88-1.6,1.92-1.6c2.32,0,9.52,6.24,9.52,8.48c0,1.28-1.12,2.24-2.16,2.24
	C399.3,173.19,398.83,172.95,398.51,172.39z M406.67,167.35c-1.12-1.68-5.52-5.68-7.36-6.72c-0.72-0.4-1.04-0.96-1.04-1.44
	c0-0.88,0.88-1.6,2-1.6c1.2,0,9.68,5.52,9.68,8.16c0,1.28-1.04,2.32-2.08,2.32C407.38,168.07,406.99,167.83,406.67,167.35z"/>
<path d="M421.62,218.87c-1.76-5.44-2.4-11.28-2.4-17.04c0-3.52,0.24-7.04,0.64-10.48c0.96-9.04,2.88-17.44,3.44-22.48
	c0.16-1.6,1.2-2.24,2.16-2.24c1.2,0,2.32,0.88,2.32,2.24c0,0.08,0,0.24,0,0.4c-0.56,3.44-2.16,10.56-3.12,16.48
	c-0.72,4.8-1.44,10.16-1.44,15.2c0,4.08,0.56,7.44,0.96,7.44c0.16,0,0.4-0.32,0.72-1.12c1.04-2.4,3.68-7.68,4.96-9.92
	c0.48-0.8,1.04-1.12,1.6-1.12c0.96,0,1.92,0.96,1.92,2.08c0,0.24-0.08,0.56-0.24,0.88c-2.08,3.52-7.04,12.16-7.04,17.12
	c0,0.24,0,0.48,0,0.64c0.08,0.48,0.16,1.2,0.16,1.84c0,2-1.52,2.4-2.24,2.4C423.06,221.19,422.18,220.55,421.62,218.87z
	 M464.42,212.71c-2.64,4.8-8.48,8.4-14.16,8.4c-6.32,0-10.64-4.48-10.64-8.4c0-5.68,7.12-7.28,12.56-7.28c3.12,0,6.4,0.56,9.6,1.52
	c0.16-1.12,0.16-2.16,0.16-3.28c0-1.84-0.16-3.76-0.32-5.92c-0.4-3.76-0.8-10.72-0.96-17.6c-9.6,1.92-14.56,4.32-17.28,6.72
	c-0.48,0.4-0.96,0.64-1.44,0.64c-1.12,0-2.16-1.04-2.16-2.24c0-4.56,18-8.48,20.8-9.12c0-11.36,0-12.4,2.4-12.4
	c1.12,0,2.32,0.64,2.32,1.84c0,0.08,0,0.08,0,0.16c-0.32,2.88-0.56,6.16-0.64,9.52c2.24-0.4,7.04-1.2,7.68-1.2
	c1.36,0,2.16,0.96,2.16,2.08c0,0.96-0.72,2-2.32,2.16c-2.72,0.32-5.28,0.72-7.52,1.12c0.08,6.56,0.56,13.12,0.96,17.76
	c0.24,2.88,0.48,5.68,0.48,8.64c0,0.32,0,0.72,0,1.04c0,0.56-0.08,1.12-0.16,1.6c0.32,0.16,0.64,0.24,0.96,0.4
	c4.32,2,9.92,5.52,9.92,7.84c0,1.28-1.04,2.48-2.24,2.48c-0.56,0-1.12-0.24-1.68-0.8c-2.16-2.32-5.04-4.48-8.24-6.08L464.42,212.71z
	 M451.78,209.03c-7.84,0-8.16,3.04-8.16,3.76c0,1.76,2.24,4.48,6.48,4.48c5.84,0,9.92-4.8,10.64-6.56
	C456.02,209.11,453.38,209.03,451.78,209.03z"/>
<path d="M502.21,198.07c0.08,0,0.24-0.08,0.48-0.32c2-1.84,5.84-3.6,9.2-3.6c3.36,0,6.16,1.76,6.16,7.12c0,1.28-0.08,2.24-1.52,7.52
	c-0.24,0.8-0.32,1.52-0.32,2.16c0,2.8,2.08,4.16,5.52,4.16c12.4,0,20.96-13.44,22.72-21.04c0.4-1.6,1.44-2.24,2.48-2.24
	c1.28,0,2.56,1.04,2.56,2.56c0,2.88-9.04,25.12-28,25.12c-9.44,0-9.84-5.6-9.84-7.2c0-1.12,0.16-2.32,0.56-3.68
	c1.28-4.32,1.6-6.16,1.6-7.36c0-2.48-1.12-3.68-2.96-3.68c-3.2,0-12.4,4.32-16.4,16.32c-1.6,4.88-3.04,5.68-4.32,5.68
	c-2.32,0-2.48-1.76-2.48-2.24c0-1.44,2.88-7.52,13.84-25.68c4.32-7.2,8.24-14,11.92-20.32c1.28-2.24,3.44-5.36,4.24-6.96
	c0.48-0.88,1.28-1.28,2.08-1.28c1.28,0,2.64,1.04,2.64,2.48c0,0.88-0.32,1.6-4.08,6.8c-3.68,5.2-15.2,23.92-15.92,25.12
	c-0.16,0.16-0.24,0.4-0.24,0.48L502.21,198.07z"/>
</svg>
